<?xml version="1.0" encoding="UTF-8"?><svg id="Layer_1" xmlns="http://www.w3.org/2000/svg" viewBox="0 0 2000 600"><defs><style>.cls-1{fill:#ff4500;stroke-width:0px;}</style></defs><path class="cls-1" d="m296.06,192.35l-45.61,108.45c-5.75-2.87-19.39-6.11-32.32-6.11s-25.86,3.23-38.42,9.34c-24.78,12.57-43.1,37.71-43.1,73.98v198.59H23.13V190.2h110.25v54.23h2.15c25.86-34.48,65.36-59.97,116.71-59.97,18.67,0,36.63,3.59,43.81,7.9Z"/><path class="cls-1" d="m274.1,384.48c0-111.69,76.49-200.03,191.05-200.03,103.79,0,178.12,75.77,178.12,182.43,0,18.67-1.8,36.27-5.74,53.15h-260c11.85,40.58,47.04,72.18,99.83,72.18,29.09,0,70.39-10.42,92.65-27.65l35.2,84.75c-32.68,22.27-82.6,33.04-126.41,33.04-122.46,0-204.7-79.01-204.7-197.87Zm101.27-35.56h163.4c0-49.56-33.76-75.77-75.06-75.77-46.68,0-78.29,30.17-88.34,75.77Z"/><path class="cls-1" d="m1617.09,16.58c38.07,0,69.31,31.24,69.31,69.31s-31.24,69.31-69.31,69.31-69.31-31.24-69.31-69.31,31.24-69.31,69.31-69.31Zm56.74,560.03h-113.48V190.2h113.48v386.41Z"/><path class="cls-1" d="m958.18,23.57l-.36,203.26h-2.15c-31.24-29.81-65-42.02-109.17-42.02-108.81,0-180.99,87.62-180.99,198.59s67.51,198.95,177.4,198.95c45.97,0,89.42-15.8,117.43-51.71h3.23v45.97h108.09V23.57h-113.48Zm5.4,460.92h-3.75l-25.32-26.32c-16.48,16.45-39.05,26.32-65.38,26.32-55.59,0-94.46-43.96-94.46-101s38.87-101,94.46-101,94.46,43.96,94.46,101v101Z"/><path class="cls-1" d="m1391.6,23.56l-.36,203.26h-2.15c-31.24-29.81-65-42.02-109.17-42.02-108.81,0-180.99,87.62-180.99,198.59s67.51,198.95,177.4,198.95c45.97,0,89.42-15.8,117.43-51.71h3.23v45.97h108.09V23.56h-113.48Zm4.86,460.92h-3.75l-25.32-26.32c-16.48,16.45-39.05,26.32-65.38,26.32-55.59,0-94.46-43.96-94.46-101s38.87-101,94.46-101,94.46,43.96,94.46,101v101Z"/><path class="cls-1" d="m1893.91,190.2h82.96v96.6h-82.96v289.81h-113.48v-289.81h-82.6v-96.6h82.6v-105.04h113.48v105.04Z"/></svg>